<svg xmlns="http://www.w3.org/2000/svg" xmlns:xlink="http://www.w3.org/1999/xlink" id="Calque_1" x="0px" y="0px" width="3129.038px" height="1754.181px" viewBox="-677.661 0 3129.038 1754.181" xml:space="preserve"><g>	<path fill="#1E1E1C" d="M1312.944,1242.761c-0.426,10.606-25.493,24.854-33.636,29.995c-37.804,23.992-92.005,39.842-127.455,4.391  c-34.275-34.274-24.632-98.22,12.32-120.823c18.688-11.246,42.63-16.6,67.9-18.633c20.25-1.714,61.593-5.359,80.444-3.215  L1312.944,1242.761L1312.944,1242.761z M1057.496,912.598l14.774,58.268c24.956-5.993,40.005-14.887,77.443-22.278  c29.234-5.618,61.045-8.889,92.379-4.817c31.436,4.016,49.06,15.85,59.869,39.203c5.577,11.783,8.417,25.757,10.069,40.217  l-0.426,47.128c-2.038,1.069-94.255,6.961-107.428,8.568c-92.004,11.783-184.657,61.801-170.248,177.479  c8.883,71.87,47.66,104.644,120.388,113.426c39.902,4.821,66.085,0.218,99.133-13.71c13.923-5.887,26.831-12.636,38.604-20.134  c15.748-9.852,29.458-23.992,32.724-25.6l9.744,49.272h74.654c1.349-14.998,0.223-199.868,0.223-220.433  c0-36.952,0-73.792,0-110.587c0-35.613-2.677-63.945-19.438-90.347c-50.561-80.596-160.564-76.742-251.392-54.839  C1118.217,888.342,1069.918,901.728,1057.496,912.598L1057.496,912.598z"></path>	<path fill="#1E1E1C" d="M2210.403,1248.977c-6.368,3.534-13.122,10.069-20.565,15.312c-20.99,15.211-47.184,29.246-74.815,32.779  c-82.361,10.176-101.699-74.659-75.293-118.354c28.271-46.809,117.872-44.132,170.998-44.345L2210.403,1248.977L2210.403,1248.977z   M1955.493,912.598c0.527,9.106,11.772,51.468,15.413,58.11c13.933-2.784,44.344-15.642,77.767-22.172  c48.411-9.639,127.882-17.675,151.234,34.599c9.532,21.311,16.388,80.327,9.644,87.076c-4.178,3.001-44.557,3.321-53.876,3.965  c-53.45,3.315-97.521,7.388-143.953,31.811c-49.11,25.706-89.977,71.014-79.907,150.809  c9.218,72.402,47.985,104.106,120.499,113.106c53.237,6.53,95.117-7.18,137.737-33.849c18.588-11.672,26.457-21.848,32.835-26.132  l9.319,49.698l75.08,0.106v-331.02c0-37.276-2.941-63.246-19.814-91.147c-48.948-80.175-161.953-74.816-250.692-54.038  C2015.899,888.231,1968.452,901.515,1955.493,912.598L1955.493,912.598z"></path>	<path fill="#1E1E1C" d="M1617.664,1360.795h119.647c3.954-1.069,12.473-20.24,14.724-24.955c4.604-9.213,8.092-17.675,12.32-26.883  c8.133-17.568,15.525-37.063,22.491-55.914c28.921-77.331,52.265-161.729,72.19-242.544c4.928-19.87,27.957-115.84,27.957-129.656  h-89.54c-19.5-0.269-11.57-2.732-16.874,37.17c-5.354,41.231-14.034,82.579-23.992,121.563  c-7.393,28.384-58.054,209.188-68.225,220.859l-25.493-96.933c-9.644-32.241-18.425-63.089-28.545-94.793l-44.132-140.471  c-5.029-15.854-9.856-32.723-15.637-47.184l-105.825-0.213c0.426,9.319,69.513,225.032,74.116,240.354  c12.747,41.129,24.966,78.831,37.438,119.211C1592.395,1280.144,1606.631,1321.167,1617.664,1360.795L1617.664,1360.795z"></path>	<path fill="#1E1E1C" d="M857.04,870.667l0.051,415.475c0,77.225-25.169,165.269-102.713,190.65  c4.554,9.318,37.916,43.594,46.799,56.877c26.243-4.715,64.858-28.707,79.349-42.523c22.137-20.885,35.847-37.271,52.233-70.796  c32.937-66.947,27.693-137.849,27.693-218.075c0-163.98,0.852-328.073,0-492.054c-12.158-2.146-83.061-0.751-103.412-0.645V870.667  L857.04,870.667z"></path>			<linearGradient id="SVGID_1_" gradientUnits="userSpaceOnUse" x1="-2767.4565" y1="-512.1069" x2="-2374.5186" y2="-512.1069" gradientTransform="matrix(1 0 0 -1 2580.3799 12.8682)">		<stop offset="0" style="stop-color:#634D9A"></stop>		<stop offset="1" style="stop-color:#54C2E9"></stop>	</linearGradient>	<path fill="url(#SVGID_1_)" d="M10.933,942.269l-32.5-47.184c-10.719-15.524-21.133-32.88-31.121-50.124  c-18.264-31.704-40.136-71.977-50.175-112.031c-18.324-73.265,26.933-118.679,66.886-166.77  c6.054-7.286,13.071-14.141,19.652-20.996c41.778-44.075,99.072-96.77,143.69-140.206c45.357-44.34,72.666-93.394,77.919-165.107  c2.839-37.433-4.391-117.659-30.817-132.17c7.899,56.178,9.715,94.418-13.04,150.915C135.021,324.2,92.097,363.458,42.236,402.23  C1.562,433.99-65.142,491.131-100.247,524.281c-22.756,21.528-61.178,60.087-77.088,97.733  c-23.536,55.646-0.162,92.065,25.006,131.05c12.027,18.531,24.236,34.381,37.094,50.981c14.938,19.389,28.222,32.723,40.218,47.934  c12.635,16.062,28.271,30.791,42.042,46.108C-24.488,907.513,2.425,936.328,10.933,942.269L10.933,942.269z"></path>			<linearGradient id="SVGID_2_" gradientUnits="userSpaceOnUse" x1="-3133.5854" y1="-1476.9839" x2="-2064.7583" y2="-1476.9839" gradientTransform="matrix(1 0 0 -1 2580.3799 12.8682)">		<stop offset="0" style="stop-color:#634D9A"></stop>		<stop offset="1" style="stop-color:#54C2E9"></stop>	</linearGradient>	<path fill="url(#SVGID_2_)" d="M493.891,1424.847c15.951,25.812,0.152,36.633-21.589,46.804  c-96.902,45.308-424.631,53.876-526.968,55.271c-104.355,1.607-209.481-2.57-310.267-20.245  c-16.367-2.784-88.121-14.242-91.498-33.2c-2.221-11.996,10.496-20.996,17.087-25.067c23.182-14.46,65.68-24.312,94.844-29.665  c8.457-1.501,28.859-3.747,35.238-6.323c-48.897-7.174-203.509,18.963-237.408,67.054c-21.346,30.31,14.409,44.339,38.209,52.157  c89.165,29.134,274.766,35.025,372.661,36.42c146.307,1.927,498.372,0.537,627.389-88.151c7.575-5.141,22.329-15.85,23.881-26.35  C517.315,1440.377,501.871,1428.057,493.891,1424.847L493.891,1424.847z"></path>			<linearGradient id="SVGID_3_" gradientUnits="userSpaceOnUse" x1="-2560.2837" y1="-697.5962" x2="-2222.4111" y2="-697.5962" gradientTransform="matrix(1 0 0 -1 2580.3799 12.8682)">		<stop offset="0" style="stop-color:#634D9A"></stop>		<stop offset="1" style="stop-color:#54C2E9"></stop>	</linearGradient>	<path fill="url(#SVGID_3_)" d="M71.744,1001.987c15.556-5.415,61.481-43.062,73.823-55.646  c16.174-16.98,43.807-47.985,46.169-84.029c2.14-32.667-20.464-75.293-34.224-96.126c-43.543-65.929-78.295-103.737-19.409-176.945  c19.673-24.368,41.068-43.432,66.024-64.104c29.884-24.742,78.862-58.484,113.888-80.545l39.953-25.65  c-21.133,2.834-77.118,25.169-99.234,33.413c-29.671,11.194-63.864,28.17-89.814,43.167  C79.969,546.934-7.482,627.424,28.313,738.66c24.185,75.293,94.762,120.387,89.682,176.778  C114.963,949.925,81.732,984.576,71.744,1001.987L71.744,1001.987z"></path>			<linearGradient id="SVGID_4_" gradientUnits="userSpaceOnUse" x1="-2841.4136" y1="-1345.5093" x2="-2322.9336" y2="-1345.5093" gradientTransform="matrix(1 0 0 -1 2580.3799 12.8682)">		<stop offset="0" style="stop-color:#634D9A"></stop>		<stop offset="1" style="stop-color:#54C2E9"></stop>	</linearGradient>	<path fill="url(#SVGID_4_)" d="M257.446,1370.008c-27.318-10.389-47.883-22.385-72.352-36.846  c-14.136-8.462-8.731-7.93-26.883-3.427c-73.964,18.207-193.946,18.526-271.652,16.174c-19.956-0.645-76.185-2.357-87.542-21.209  c-7.169-11.89,2.575-20.458,6.479-27.207c-50.925,10.176-102.763,52.482-31.963,87.72c79.684,39.634,247.144,40.065,334.331,24.53  C132.719,1405.247,245.531,1379.541,257.446,1370.008L257.446,1370.008z"></path>			<linearGradient id="SVGID_5_" gradientUnits="userSpaceOnUse" x1="-2887.0059" y1="-1177.5757" x2="-2299.4277" y2="-1177.5757" gradientTransform="matrix(1 0 0 -1 2580.3799 12.8682)">		<stop offset="0" style="stop-color:#634D9A"></stop>		<stop offset="1" style="stop-color:#54C2E9"></stop>	</linearGradient>	<path fill="url(#SVGID_5_)" d="M280.952,1203.776c-21.042-5.359-39.974-18.531-52.853-29.777  c-11.307-9.639-7.392-7.28-31.648-3.214c-87.086,14.46-346.417,39.847-420.676,9.318c-9.582-4.066-20.717-9.958-21.447-21.315  c-0.771-13.496,10.638-20.671,15.403-28.059c-59.717,7.388-117.021,64.909-37.062,92.431  c90.158,30.847,284.642,31.922,380.479,19.814C144.847,1238.908,256.828,1217.167,280.952,1203.776L280.952,1203.776z"></path>			<linearGradient id="SVGID_6_" gradientUnits="userSpaceOnUse" x1="-3009.7251" y1="-1004.9526" x2="-2239.4473" y2="-1004.9526" gradientTransform="matrix(1 0 0 -1 2580.3799 12.8682)">		<stop offset="0" style="stop-color:#634D9A"></stop>		<stop offset="1" style="stop-color:#54C2E9"></stop>	</linearGradient>	<path fill="url(#SVGID_6_)" d="M340.933,1008.036c-11.348,0.532-26.507,4.071-37.966,5.835c-13.335,1.927-25.97,3.965-39.233,5.729  c-79.846,11.195-168.291,20.19-248.188,24.799c-62.424,3.641-297.662,11.459-332.788-21.315  c-2.576-14.673,14.268-23.992,24.631-29.564c40.379-21.635,83.253-28.864,123.014-41.449  c-54.891-5.141-192.982,34.382-242.895,65.553c-53.957,33.737,35.958,47.123,69.645,51.732  c196.979,27.525,381.2,12.746,575.927-14.892c31.76-4.492,38.554-2.677,60.224-16.387  C308.158,1028.6,327.74,1018.475,340.933,1008.036L340.933,1008.036z"></path>			<linearGradient id="SVGID_7_" gradientUnits="userSpaceOnUse" x1="-2920.1445" y1="-1562.561" x2="-1995.4482" y2="-1562.561" gradientTransform="matrix(1 0 0 -1 2580.3799 12.8682)">		<stop offset="0" style="stop-color:#634D9A"></stop>		<stop offset="1" style="stop-color:#54C2E9"></stop>	</linearGradient>	<path fill="url(#SVGID_7_)" d="M-339.765,1601.149c55.002,23.136,174.771,37.271,236.901,42.307  c87.339,7.174,183.309,5.46,270.688-0.751c113.076-8.031,247.234-20.99,346.682-71.439c23.647-12.214,66.298-40.916,70.425-68.549  c-7.129,3.209-13.284,9.639-19.896,14.136c-175.501,120.818-576.596,109.253-783.603,94.58L-339.765,1601.149L-339.765,1601.149z"></path>			<linearGradient id="SVGID_8_" gradientUnits="userSpaceOnUse" x1="-2233.3428" y1="-1074.5698" x2="-1994.9219" y2="-1074.5698" gradientTransform="matrix(1 0 0 -1 2580.3799 12.8682)">		<stop offset="0" style="stop-color:#634D9A"></stop>		<stop offset="1" style="stop-color:#54C2E9"></stop>	</linearGradient>	<path fill="url(#SVGID_8_)" d="M380.724,961.07c42.985-13.497,91.902-4.502,119.109,19.652  c29.458,26.294,29.772,75.992,8.538,114.444c-28.413,51.519-88.019,97.257-137.362,128.424c-8.437,5.248-16.63,9.319-23.972,14.78  c31.871-3.428,107.326-37.489,136.054-55.266c36.638-22.604,77.555-55.803,94.448-98.434  c24.073-60.838-10.981-107.215-48.309-129.174c-21.478-12.64-47.396-20.134-77.544-18.851  C428.606,937.559,391.117,946.661,380.724,961.07L380.724,961.07z"></path></g></svg>